<svg xmlns="http://www.w3.org/2000/svg" width="25" height="25" viewBox="0 0 25 25"><g><g><path fill="#2ecb70" d="M12.504-.057C5.692-.057.168 5.5.168 12.353c0 6.855 5.524 12.411 12.336 12.411s12.335-5.556 12.335-12.41S19.316-.056 12.504-.056z"/></g><g><path fill="#fff" d="M17.418 9.563a7.911 7.911 0 0 0-1.41-.814.597.597 0 0 0-.687.167l-4.006 4.757-2.347-2.754a.616.616 0 0 0-.686-.177c-.512.24-.986.51-1.423.824-.2.146-.212.407-.05.605 0 0 3.095 3.64 3.47 4.079.549.625 1.547.594 2.072 0 .387-.45 5.117-6.092 5.117-6.092.163-.199.15-.46-.05-.595z"/></g></g></svg>