<svg xmlns="http://www.w3.org/2000/svg" width="47" height="48" viewBox="0 0 47 48"><g><g><path fill="#fff" d="M23.984 4.669c-10.627 0-19.273 8.675-19.273 19.337 0 10.662 8.646 19.337 19.273 19.337 10.626 0 19.273-8.675 19.273-19.337 0-10.662-8.647-19.337-19.273-19.337 0 0 10.626 0 0 0zm0-3.868c12.772 0 23.127 10.39 23.127 23.205 0 12.815-10.355 23.205-23.127 23.205C11.212 47.21.856 36.82.856 24.006.856 11.19 11.212.8 23.984.8zm-9.717 21.272H33.54v3.867H14.267zm0-5.803H33.54v3.867H14.267zm0 11.605H33.54v3.868H14.267z"/></g></g></svg>